<svg width="171" height="37" viewBox="0 0 171 37" fill="none" xmlns="http://www.w3.org/2000/svg">
<g clip-path="url(#clip0_5181_625)">
<path d="M26.7602 0.000422905C30.5064 2.45462 34.256 4.90078 38.0091 7.3389C38.7025 7.74189 39.351 8.21764 39.9437 8.7581C40.6589 9.45215 41.1258 10.3629 41.2721 11.3494C41.3954 12.4209 41.1718 13.5037 40.6341 14.4383C40.349 14.9318 40.024 15.4011 39.6624 15.8414C38.8557 16.8942 38.0491 17.947 37.2427 18.9997C38.2564 19.9106 38.97 21.1083 39.2889 22.4343C39.5612 23.7765 39.3235 25.1721 38.6222 26.3479C37.7139 27.8005 36.419 28.9705 34.8831 29.7263C32.484 30.9305 29.8276 31.5298 27.1447 31.4721C18.0957 31.4721 9.04702 31.4721 -0.00140381 31.4721C3.25068 23.0128 6.50655 14.5551 9.76624 6.09911C11.3971 6.09911 13.0276 6.09911 14.6579 6.09911C15.368 8.85937 16.0783 11.6196 16.7889 14.3799C17.1481 15.7535 17.0915 17.2031 16.6263 18.5444C16.1475 19.9586 15.6696 21.3727 15.1928 22.7868C18.2753 18.8446 21.3574 14.9026 24.439 10.961C25.3305 9.80833 26.2642 8.68575 27.0585 7.46203C27.5912 6.75433 28.0082 5.96635 28.2939 5.12758C28.5093 4.21318 28.4809 3.25815 28.2115 2.3582C27.9422 1.45826 27.4414 0.64502 26.7594 0M22.335 18.1454C22.0866 18.3358 21.7901 18.4531 21.4787 18.4839C21.1674 18.5148 20.8537 18.4581 20.5728 18.3202C20.0155 20.306 19.4418 22.2883 18.8799 24.2733C20.8462 21.5624 22.8117 18.8516 24.7766 16.141C23.9632 16.8096 23.1493 17.4774 22.335 18.1454ZM25.6334 19.8621C25.3698 20.0644 25.0543 20.1877 24.7236 20.2177C24.3928 20.2476 24.0603 20.183 23.7648 20.0313C23.2896 21.885 22.8137 23.7389 22.3371 25.5931C24.1961 23.0342 26.0521 20.4745 27.9052 17.914C27.1447 18.5597 26.3965 19.2185 25.6334 19.8604M28.5136 21.6625C28.2831 21.8437 28.0064 21.9564 27.7151 21.9876C27.4237 22.0189 27.1295 21.9675 26.8659 21.8394C26.4577 23.5083 26.0502 25.1773 25.6432 26.8464C27.3362 24.4605 29.0279 22.0733 30.7182 19.6848C29.9818 20.3423 29.2559 21.0109 28.5144 21.663M31.3405 23.1016C31.1483 23.2371 30.9235 23.319 30.6893 23.3389C30.4551 23.3588 30.2198 23.3161 30.0075 23.215C29.5667 24.7804 29.1254 26.346 28.6834 27.9118C30.1841 25.8063 31.6816 23.6992 33.1758 21.5906C32.5602 22.0899 31.9607 22.6095 31.3405 23.102V23.1016Z" fill="#524E49"/>
<path d="M48.7986 12.1403C52.2298 11.0664 55.7907 10.4637 59.3837 10.3488C64.0461 10.1185 68.7193 10.438 73.3071 11.3008C74.6472 11.5547 75.981 11.8509 77.2916 12.2351C75.6774 14.627 74.0639 17.0191 72.4511 19.4115C68.2122 18.3244 63.8561 17.7625 59.4805 17.7385C57.9373 17.6665 56.3914 17.8029 54.8846 18.1442C54.5424 18.2619 54.1173 18.3664 53.945 18.7189C53.9027 19.0201 54.2318 19.178 54.4558 19.2918C55.3677 19.6305 56.3228 19.8389 57.2928 19.9108C59.8811 20.1337 62.4557 20.4938 65.0059 20.9894C66.6561 21.293 68.2596 21.8117 69.7754 22.5322C70.7532 22.9757 71.5627 23.7221 72.0848 24.6614C72.4681 25.537 72.5175 26.5229 72.2238 27.4325C71.6808 29.2689 70.6201 30.9093 69.1691 32.1569C66.8961 34.141 63.9961 35.2263 61.0995 35.9165C59.0788 36.3755 57.0262 36.6796 54.9594 36.8262C50.0451 37.2332 45.0984 36.9655 40.2566 36.0303C38.721 35.7325 37.2081 35.328 35.7287 34.8197C37.0925 32.0862 38.4566 29.353 39.821 26.6201C41.4784 27.3968 43.2168 27.9869 45.0041 28.3795C48.4863 29.1542 52.0654 29.3975 55.6202 29.1014C56.5443 29.0484 57.4595 28.8914 58.3486 28.6334C58.6379 28.5624 58.8966 28.3999 59.0863 28.1701C59.1898 27.9915 59.0272 27.8066 58.889 27.7088C58.5163 27.4781 58.1067 27.3134 57.6781 27.2218C56.3278 26.9277 54.9547 26.7503 53.574 26.6916C51.2028 26.5334 48.8442 26.2225 46.5129 25.7607C45.093 25.4948 43.7233 25.0087 42.4531 24.3199C41.5387 23.8301 40.8441 23.0108 40.5097 22.0278C40.2525 20.904 40.356 19.7275 40.8054 18.666C41.3715 17.1351 42.3606 15.797 43.6572 14.8078C45.2057 13.6301 46.9448 12.7278 48.7986 12.1403Z" fill="#524E49"/>
<path d="M126.797 4.45756C128.871 3.74795 131.065 3.46121 133.25 3.61425C135.054 3.71284 136.904 4.03485 138.474 4.98014C137.861 5.91443 137.247 6.84871 136.632 7.783C134.605 6.76973 132.33 6.35793 130.077 6.5961C128.721 6.66982 127.415 7.12619 126.307 7.91248C125.477 8.54754 124.89 9.45027 124.647 10.4682C124.568 10.7689 124.563 11.0843 124.633 11.3873C124.703 11.6903 124.845 11.9717 125.047 12.2073C125.624 12.7525 126.366 13.0876 127.156 13.1585C128.581 13.3415 130.028 13.269 131.428 12.9444C131.871 11.8 132.316 10.6561 132.764 9.51279C134.045 9.51279 135.325 9.51279 136.606 9.51279C135.885 11.3664 135.163 13.2191 134.441 15.0707C132.389 15.6857 130.268 16.041 128.128 16.1285C126.429 16.2609 124.72 16.0607 123.098 15.5391C122.13 15.23 121.305 14.5812 120.777 13.712C120.353 12.8412 120.264 11.8442 120.528 10.9121C120.921 9.3119 121.767 7.85965 122.966 6.73066C124.071 5.71469 125.376 4.94055 126.797 4.45756Z" fill="#524E49"/>
<path d="M98.9643 15.8329C103.057 11.8272 107.146 7.81909 111.231 3.80859C112.537 3.80859 113.845 3.80859 115.151 3.80859C116.109 7.81599 117.067 11.8235 118.024 15.8312C116.428 15.8342 114.831 15.8312 113.235 15.8312C113.125 15.199 113.019 14.5673 112.907 13.9351C110.438 13.9371 107.969 13.9371 105.5 13.9351C104.89 14.5643 104.286 15.2003 103.678 15.8312H98.9643M108.147 11.1136C109.584 11.1136 111.022 11.1136 112.461 11.1136C112.25 9.82688 112.03 8.54224 111.817 7.25547C110.593 8.54153 109.369 9.82829 108.147 11.1158V11.1136Z" fill="#524E49"/>
<path d="M87.2046 3.90134C90.7817 3.90134 94.3604 3.90134 97.9406 3.90134C98.8195 3.85511 99.6909 4.08469 100.433 4.55805C100.672 4.7447 100.855 4.99255 100.965 5.27527C101.074 5.55799 101.105 5.86505 101.054 6.16385C100.967 6.7984 100.707 7.39668 100.303 7.89264C99.8982 8.3886 99.3647 8.76294 98.7611 8.97433C98.9842 9.00725 99.1984 9.08447 99.3912 9.20146C99.5841 9.31845 99.7516 9.47284 99.8841 9.65559C100.037 9.92064 100.131 10.2159 100.16 10.5209C100.188 10.8259 100.15 11.1334 100.048 11.4222C99.6458 12.7185 98.8091 13.8358 97.6791 14.5851C96.3431 15.429 94.7895 15.8619 93.2104 15.8304C89.6586 15.8324 86.1065 15.8324 82.5542 15.8304C84.1033 11.8529 85.6535 7.87545 87.2046 3.89795M89.9508 6.71944C89.7644 7.19335 89.579 7.66797 89.3948 8.1433C91.427 8.14033 93.4605 8.15429 95.4927 8.13652C96.0626 8.13356 96.7251 7.77982 96.7686 7.15188C96.7589 6.80237 96.3406 6.73509 96.0685 6.72409C94.0296 6.7114 91.9902 6.72409 89.9512 6.71901M88.3322 10.8738C88.0531 11.5838 87.7757 12.2953 87.4999 13.0081C89.4386 13.0081 91.3772 13.0081 93.3156 13.0081C93.8662 13.0421 94.4187 12.9807 94.9485 12.8266C95.2357 12.7312 95.4894 12.5549 95.6791 12.3188C95.8689 12.0827 95.9866 11.7968 96.0183 11.4954C96.0233 11.214 95.7542 11.0469 95.5134 10.9876C94.9848 10.8845 94.4458 10.8458 93.9079 10.8721C92.046 10.8776 90.1883 10.8746 88.3297 10.8776L88.3322 10.8738Z" fill="#524E49"/>
<path d="M140.477 3.90298C144.051 3.901 147.626 3.901 151.2 3.90298C152.06 3.85459 152.907 4.12582 153.58 4.66463C153.822 4.9114 154.001 5.2132 154.101 5.54426C154.202 5.87532 154.221 6.22581 154.156 6.56578C153.933 7.863 153.273 9.04467 152.287 9.91448C151.3 10.7843 150.046 11.2899 148.733 11.3472C149.54 12.8423 150.345 14.3381 151.147 15.8346C149.438 15.8366 147.73 15.8366 146.021 15.8346C145.41 14.4411 144.796 13.0487 144.18 11.6574C143.22 11.6574 142.261 11.6574 141.302 11.6574C140.757 13.0498 140.213 14.4429 139.672 15.8367C138.391 15.8367 137.109 15.8367 135.827 15.8367C137.375 11.8592 138.924 7.88273 140.475 3.90721M143.221 6.72657C142.925 7.48018 142.63 8.23252 142.341 8.98824C144.369 8.97936 146.397 8.99502 148.425 8.98021C148.863 8.97615 149.283 8.80624 149.601 8.50463C149.919 8.20303 150.111 7.79211 150.138 7.35451C150.105 6.90429 149.604 6.7198 149.216 6.72954C147.221 6.71938 145.223 6.72531 143.224 6.72234L143.221 6.72657Z" fill="#524E49"/>
<path d="M157.062 3.90322C161.71 3.89814 166.356 3.89814 171 3.90322C170.631 4.84724 170.265 5.79338 169.896 6.73824C166.531 6.73824 163.167 6.73824 159.802 6.73824C159.618 7.20934 159.435 7.68001 159.253 8.15026H169.345C168.997 9.05492 168.64 9.95536 168.289 10.8583C164.924 10.8603 161.56 10.8603 158.195 10.8583C157.917 11.5684 157.641 12.2794 157.365 12.9914C160.729 12.9945 164.092 12.9945 167.457 12.9914C167.087 13.9384 166.72 14.8853 166.348 15.8315C161.704 15.8315 157.059 15.8315 152.414 15.8315C153.961 11.8545 155.51 7.87846 157.062 3.90322Z" fill="#524E49"/>
<path d="M124.095 17.998C124.851 18.2697 125.605 18.5481 126.361 18.8156C126.505 18.8888 126.657 18.8156 126.806 18.783C127.736 18.5155 128.665 18.2587 129.595 17.9989C129.527 18.455 129.462 18.9125 129.394 19.3686C128.202 19.7813 127.012 20.1944 125.822 20.608C124.956 20.1953 124.09 19.7814 123.226 19.3665C123.514 18.9103 123.804 18.4542 124.095 17.998Z" fill="#524E49"/>
<path d="M81.2508 22.1487C82.9012 21.3952 84.6838 20.9754 86.4965 20.9131C88.1455 20.8184 89.7998 20.8702 91.4397 21.068C92.3932 21.165 93.3265 21.4067 94.2074 21.7848C93.5726 22.7377 92.9353 23.6898 92.2956 24.641C90.9404 24.0483 89.482 23.7286 88.0035 23.6999C86.8441 23.6424 85.682 23.6645 84.5256 23.7659C84.0176 23.7883 83.5203 23.9193 83.0671 24.1501C82.8504 24.2796 82.656 24.6092 82.858 24.8314C83.1248 25.0239 83.4377 25.1425 83.765 25.175C85.2607 25.4327 86.7863 25.4504 88.2857 25.6726C89.1826 25.7638 90.06 25.993 90.887 26.3522C91.1449 26.4623 91.3728 26.6323 91.552 26.8482C91.7312 27.0641 91.8565 27.3196 91.9175 27.5936C91.9741 28.3452 91.7977 29.096 91.4126 29.7436C90.7037 31.0011 89.5728 31.9664 88.2207 32.4682C86.3385 33.2353 84.2797 33.4232 82.2635 33.4342C80.0391 33.4232 77.7644 33.2832 75.6658 32.48C76.2996 31.5398 76.9566 30.6127 77.5835 29.6653C79.9918 30.6263 82.6332 30.7655 85.1918 30.581C85.9182 30.564 86.6306 30.3774 87.2722 30.036C87.5117 29.8667 87.7749 29.5016 87.5464 29.2253C87.2344 29.017 86.8741 28.8926 86.5003 28.8639C84.4423 28.5487 82.3176 28.6033 80.315 27.9753C79.6285 27.8082 79.0286 27.3915 78.6318 26.8062C78.2747 26.1292 78.4653 25.3231 78.7361 24.6524C79.2434 23.54 80.1371 22.6502 81.2508 22.1487Z" fill="#524E49"/>
<path d="M118.682 22.3008C120.418 21.3479 122.417 21.0251 124.368 20.9045C126.161 20.8073 127.958 20.8907 129.734 21.1533C130.49 21.2642 131.227 21.4769 131.926 21.7854C131.289 22.7383 130.651 23.6904 130.013 24.6416C128.447 23.8842 126.675 23.7192 124.963 23.6748C123.795 23.6299 122.626 23.7008 121.472 23.8863C121.073 23.9811 120.525 24.1432 120.488 24.6327C120.565 25.003 121.017 25.0584 121.323 25.1405C123.048 25.4633 124.817 25.4447 126.544 25.7549C127.444 25.8476 128.309 26.1537 129.067 26.6477C129.3 26.8391 129.477 27.0906 129.579 27.3753C129.68 27.66 129.702 27.9671 129.642 28.2633C129.5 29.0055 129.203 29.7092 128.77 30.3283C128.338 30.9473 127.779 31.4676 127.131 31.8548C125.483 32.8801 123.524 33.2372 121.617 33.3781C119.904 33.4867 118.185 33.4374 116.482 33.2309C115.425 33.1043 114.386 32.852 113.389 32.4794C114.029 31.5364 114.672 30.5956 115.319 29.6571C117.492 30.5567 119.885 30.7187 122.209 30.6261C123.011 30.6187 123.807 30.4939 124.573 30.2558C124.921 30.1234 125.309 29.8805 125.358 29.4738C125.378 29.225 125.119 29.0964 124.924 29.0274C124.388 28.8789 123.84 28.7827 123.286 28.7401C121.693 28.5734 120.079 28.5099 118.52 28.113C117.764 27.9747 117.068 27.6084 116.526 27.0632C116.331 26.7896 116.207 26.4718 116.165 26.1384C116.122 25.8049 116.163 25.4661 116.284 25.1523C116.47 24.5393 116.779 23.9705 117.191 23.4804C117.603 22.9903 118.111 22.589 118.682 22.3008Z" fill="#524E49"/>
<path d="M96.1412 21.1835C99.6682 21.1835 103.195 21.1845 106.723 21.1864C107.686 21.1991 108.756 21.3739 109.442 22.1173C109.694 22.4331 109.868 22.8034 109.951 23.1988C110.034 23.5941 110.023 24.0034 109.92 24.3938C109.591 25.9586 108.737 27.3633 107.5 28.3738C106.331 29.3255 104.876 29.8556 103.369 29.8789C101.111 29.8849 98.8519 29.879 96.5941 29.8819C96.175 30.9592 95.7556 32.0369 95.3359 33.1151C94.0541 33.1171 92.7725 33.1171 91.4912 33.1151C93.0404 29.1376 94.5905 25.1601 96.1416 21.1826M97.6955 27.0596C99.6183 27.0566 101.54 27.0625 103.463 27.0596C104.022 27.0365 104.557 26.8224 104.977 26.4529C105.398 26.0834 105.68 25.5807 105.776 25.0285C105.798 24.9013 105.789 24.7709 105.751 24.6477C105.713 24.5245 105.646 24.412 105.556 24.3193C105.272 24.093 104.913 23.9814 104.551 24.0062C102.661 24.0062 100.773 24.0062 98.8849 24.0062C98.489 25.0239 98.0876 26.0402 97.6951 27.0604L97.6955 27.0596Z" fill="#524E49"/>
<path d="M112.561 21.1826C113.84 21.1826 115.122 21.1826 116.405 21.1826C114.854 25.1584 113.304 29.1359 111.755 33.1151C110.473 33.1151 109.192 33.1151 107.91 33.1151C109.46 29.1382 111.01 25.1607 112.561 21.1826Z" fill="#524E49"/>
</g>
<defs>
<clipPath id="clip0_5181_625">
<rect width="171" height="37" fill="white" transform="translate(0 0.000976562)"/>
</clipPath>
</defs>
</svg>
