<svg width="1373" height="270" viewBox="0 0 1373 270" fill="none" xmlns="http://www.w3.org/2000/svg">
<path d="M92.565 269.475C73.3417 269.475 56.795 265.338 42.925 257.065C29.055 248.548 18.47 236.747 11.17 221.66C4.11333 206.573 0.585 189.54 0.585 170.56C0.585 151.093 4.235 133.938 11.535 119.095C19.0783 104.252 29.785 92.6933 43.655 84.42C57.525 76.1467 73.8283 72.01 92.565 72.01C111.058 72.01 126.875 75.9033 140.015 83.69C153.398 91.4767 163.497 102.548 170.31 116.905C177.367 131.018 180.895 147.687 180.895 166.91C180.895 173.723 180.773 178.225 180.53 180.415H18.47V152.31H143.665C143.665 142.577 141.475 133.817 137.095 126.03C132.958 118.243 126.875 112.16 118.845 107.78C111.058 103.4 101.933 101.21 91.47 101.21C81.25 101.21 72.0033 103.522 63.73 108.145C55.4567 112.768 49.0083 119.338 44.385 127.855C39.7617 136.128 37.45 145.74 37.45 156.69C37.45 163.99 37.45 171.29 37.45 178.59C37.45 189.54 39.5183 199.76 43.655 209.25C48.035 218.497 54.3617 226.04 62.635 231.88C70.9083 237.477 81.1283 240.275 93.295 240.275C103.272 240.275 111.667 238.45 118.48 234.8C125.537 231.15 130.89 226.892 134.54 222.025C138.19 216.915 140.745 211.805 142.205 206.695H178.705C173.352 225.675 163.497 240.883 149.14 252.32C134.783 263.757 115.925 269.475 92.565 269.475ZM209.736 55.22C209.736 41.1067 211.561 30.1566 215.211 22.37C219.104 14.34 224.457 8.74332 231.271 5.58C238.327 2.17332 247.209 0.469977 257.916 0.469977C264.242 0.469977 271.786 1.19998 280.546 2.65999V31.495C273.246 30.765 268.136 30.4 265.216 30.4C260.106 30.4 256.091 31.13 253.171 32.59C250.494 33.8067 248.547 36.1183 247.331 39.525C246.357 42.6883 245.871 47.6767 245.871 54.49V264H209.736V55.22ZM184.186 77.85H280.546V107.415H184.186V77.85ZM370.792 269.475C351.569 269.475 335.022 265.338 321.152 257.065C307.282 248.548 296.697 236.747 289.397 221.66C282.34 206.573 278.812 189.54 278.812 170.56C278.812 151.093 282.462 133.938 289.762 119.095C297.305 104.252 308.012 92.6933 321.882 84.42C335.752 76.1467 352.055 72.01 370.792 72.01C389.285 72.01 405.102 75.9033 418.242 83.69C431.625 91.4767 441.724 102.548 448.537 116.905C455.594 131.018 459.122 147.687 459.122 166.91C459.122 173.723 459 178.225 458.757 180.415H296.697V152.31H421.892C421.892 142.577 419.702 133.817 415.322 126.03C411.185 118.243 405.102 112.16 397.072 107.78C389.285 103.4 380.16 101.21 369.697 101.21C359.477 101.21 350.23 103.522 341.957 108.145C333.684 112.768 327.235 119.338 322.612 127.855C317.989 136.128 315.677 145.74 315.677 156.69C315.677 163.99 315.677 171.29 315.677 178.59C315.677 189.54 317.745 199.76 321.882 209.25C326.262 218.497 332.589 226.04 340.862 231.88C349.135 237.477 359.355 240.275 371.522 240.275C381.499 240.275 389.894 238.45 396.707 234.8C403.764 231.15 409.117 226.892 412.767 222.025C416.417 216.915 418.972 211.805 420.432 206.695H456.932C451.579 225.675 441.724 240.883 427.367 252.32C413.01 263.757 394.152 269.475 370.792 269.475ZM552.109 269.11C533.615 269.11 518.042 266.312 505.389 260.715C492.735 254.875 483.124 246.845 476.554 236.625C470.227 226.405 466.82 214.847 466.334 201.95H502.469C502.955 209.493 504.902 216.185 508.309 222.025C511.959 227.622 517.312 232.123 524.369 235.53C531.425 238.693 540.55 240.275 551.744 240.275C566.344 240.275 576.564 237.72 582.404 232.61C588.487 227.257 591.529 220.687 591.529 212.9C591.529 206.573 589.704 201.463 586.054 197.57C582.404 193.677 577.902 190.878 572.549 189.175C567.195 187.228 559.774 185.282 550.284 183.335C547.85 182.848 545.295 182.362 542.619 181.875C541.159 181.388 539.577 181.023 537.874 180.78C524.734 177.617 513.662 174.21 504.659 170.56C495.655 166.667 488.112 161.192 482.029 154.135C475.945 146.835 472.904 137.467 472.904 126.03C472.904 115.323 475.702 105.955 481.299 97.925C486.895 89.6517 495.047 83.325 505.754 78.945C516.46 74.565 529.114 72.375 543.714 72.375C560.26 72.375 574.13 75.0517 585.324 80.405C596.76 85.515 605.399 92.5717 611.239 101.575C617.322 110.578 620.85 120.677 621.824 131.87H585.689C583.985 122.867 580.092 115.567 574.009 109.97C568.169 104.13 558.314 101.21 544.444 101.21C533.007 101.21 524.369 103.4 518.529 107.78C512.932 111.917 510.134 117.513 510.134 124.57C510.134 129.923 511.715 134.182 514.879 137.345C518.042 140.508 522.057 142.942 526.924 144.645C532.034 146.105 539.212 147.808 548.459 149.755C550.649 150.242 553.569 150.85 557.219 151.58C572.062 155.23 584.35 159.002 594.084 162.895C603.817 166.545 611.969 172.263 618.539 180.05C625.352 187.837 628.759 198.178 628.759 211.075C628.759 223.242 625.717 233.705 619.634 242.465C613.794 250.982 605.034 257.552 593.354 262.175C581.917 266.798 568.169 269.11 552.109 269.11ZM705.198 266.19C694.248 266.19 685.244 264.608 678.188 261.445C671.131 258.038 665.656 252.442 661.763 244.655C657.869 236.625 655.923 225.553 655.923 211.44V17.99H691.693V212.535C691.693 219.105 692.301 224.093 693.518 227.5C694.978 230.907 697.168 233.34 700.088 234.8C703.008 236.017 707.144 236.625 712.498 236.625C716.634 236.625 721.744 236.138 727.828 235.165V264C719.798 265.46 712.254 266.19 705.198 266.19ZM628.913 77.85H727.463V107.415H628.913V77.85ZM806.867 269.11C788.617 269.11 773.652 263.878 761.972 253.415C750.535 242.708 744.817 227.135 744.817 206.695V77.85H780.587V196.84C780.587 209.98 783.629 220.322 789.712 227.865C796.039 235.165 805.65 238.815 818.547 238.815C828.524 238.815 837.284 236.868 844.827 232.975C852.614 229.082 858.575 223.607 862.712 216.55C866.849 209.493 868.917 201.342 868.917 192.095H869.647V240.64H868.187C862.347 248.913 854.317 255.727 844.097 261.08C834.12 266.433 821.71 269.11 806.867 269.11ZM868.917 77.85H904.687V264H868.917V77.85ZM1007.96 269.11C992.146 269.11 977.911 265.217 965.257 257.43C952.604 249.4 942.627 237.963 935.327 223.12C928.027 208.277 924.377 190.878 924.377 170.925C924.377 150.972 928.027 133.573 935.327 118.73C942.627 103.643 952.604 92.2067 965.257 84.42C977.911 76.39 992.146 72.375 1007.96 72.375C1021.35 72.375 1032.78 75.0517 1042.27 80.405C1051.76 85.515 1059.43 92.2067 1065.27 100.48H1074.76V242.1H1065.27C1059.43 249.887 1051.64 256.335 1041.91 261.445C1032.42 266.555 1021.1 269.11 1007.96 269.11ZM1013.8 239.545C1024.51 239.545 1033.76 236.747 1041.54 231.15C1049.33 225.553 1055.29 217.645 1059.43 207.425C1063.56 196.962 1065.63 184.795 1065.63 170.925C1065.63 156.812 1063.56 144.645 1059.43 134.425C1055.29 123.962 1049.33 116.053 1041.54 110.7C1033.76 105.103 1024.51 102.305 1013.8 102.305C1002.61 102.305 992.997 105.347 984.967 111.43C977.181 117.513 971.341 125.787 967.447 136.25C963.554 146.713 961.607 158.272 961.607 170.925C961.607 183.335 963.554 194.772 967.447 205.235C971.341 215.698 977.181 224.093 984.967 230.42C992.997 236.503 1002.61 239.545 1013.8 239.545ZM1066 3.02499H1101.77V264H1066V3.02499ZM1131.08 77.85H1166.85V264H1131.08V77.85ZM1128.89 5.94499H1169.41V44.635H1128.89V5.94499ZM1279.27 269.475C1260.29 269.475 1243.75 265.338 1229.63 257.065C1215.76 248.792 1205.06 237.233 1197.51 222.39C1189.97 207.303 1186.2 190.148 1186.2 170.925C1186.2 151.702 1189.97 134.547 1197.51 119.46C1205.06 104.373 1215.76 92.6933 1229.63 84.42C1243.75 76.1467 1260.42 72.01 1279.64 72.01C1298.62 72.01 1315.04 76.1467 1328.91 84.42C1342.78 92.6933 1353.49 104.373 1361.03 119.46C1368.58 134.303 1372.35 151.337 1372.35 170.56C1372.35 190.027 1368.58 207.303 1361.03 222.39C1353.49 237.233 1342.66 248.792 1328.55 257.065C1314.68 265.338 1298.25 269.475 1279.27 269.475ZM1279.64 239.91C1291.81 239.91 1302.03 236.99 1310.3 231.15C1318.82 225.067 1325.02 216.793 1328.91 206.33C1333.05 195.867 1335.12 183.943 1335.12 170.56C1335.12 150.363 1330.37 133.938 1320.88 121.285C1311.39 108.388 1297.65 101.94 1279.64 101.94C1267.23 101.94 1256.77 104.86 1248.25 110.7C1239.98 116.54 1233.77 124.692 1229.63 135.155C1225.5 145.618 1223.43 157.542 1223.43 170.925C1223.43 191.365 1228.17 208.033 1237.66 220.93C1247.15 233.583 1261.15 239.91 1279.64 239.91Z" fill="black"/>
</svg>
