<svg width="144" height="39" viewBox="0 0 144 39" fill="none" xmlns="http://www.w3.org/2000/svg">
<g clip-path="url(#clip0_5181_620)">
<path d="M111.947 16.5617V17.3969L111.926 17.642L111.859 17.8551L111.747 18.0341L111.59 18.1811L111.39 18.2961L111.145 18.3771L110.855 18.4261L110.521 18.4432H102.983V15.5197H110.521L110.855 15.5368L111.145 15.5858L111.39 15.6667L111.59 15.7818L111.747 15.9288L111.859 16.1078L111.926 16.3209L111.947 16.5659V16.5617ZM113.975 25.1552L111.285 20.0796L111.653 20.0349L111.992 19.9709L112.304 19.89L112.59 19.7898L112.848 19.6705L113.078 19.5341L113.281 19.3786L113.457 19.206L113.61 19.0185L113.741 18.8182L113.853 18.6072L113.943 18.3856L114.014 18.1512L114.066 17.9062L114.096 17.6505L114.107 17.382V16.4274L114.094 16.2804L114.079 16.1376L114.057 15.997L114.029 15.8606L113.995 15.7264L113.956 15.5964L113.911 15.4707L113.859 15.3492L113.799 15.2321L113.732 15.1191L113.657 15.0105L113.575 14.906L113.487 14.8059L113.39 14.71L113.287 14.6184L113.175 14.531L113.057 14.4479L112.93 14.3691L112.795 14.2966L112.653 14.2284L112.502 14.1667L112.343 14.1091L112.177 14.0559L112.003 14.009L111.818 13.9685L111.625 13.9344L111.422 13.9067L111.212 13.8854L110.992 13.8705L110.762 13.862H110.523L100.828 13.8598V25.168H102.985V20.1244H109.001L111.676 25.168H113.977L113.975 25.1552ZM63.484 13.847L55.8961 25.1552H58.2964L64.2798 16.0481L70.1643 25.1552H72.5968L65.0584 13.847H63.4862H63.484ZM78.5781 25.1552L86.1165 13.847H83.7335L77.8318 22.9541L71.8656 13.847H69.418L77.0059 25.1552H78.5781ZM90.5277 13.847L82.9398 25.1552H85.3401L91.3235 16.0481L97.208 25.1552H99.6405L92.1021 13.847H90.5299H90.5277ZM128.534 25.1552V23.4846H119.341L119.008 23.4676L118.718 23.4186L118.473 23.3376L118.273 23.2225L118.116 23.0755L118.004 22.8965L117.937 22.6835L117.916 22.4384V16.5595L117.937 16.3145L118.004 16.1014L118.116 15.9224L118.273 15.7754L118.473 15.6603L118.718 15.5794L119.008 15.5304L119.341 15.5133H128.534V13.8428H119.103L118.873 13.8556L118.653 13.8705L118.442 13.8918L118.24 13.9195L118.047 13.9536L117.862 13.9941L117.688 14.0409L117.522 14.0942L117.363 14.1517L117.212 14.2135L117.07 14.2817L116.935 14.3542L116.808 14.433L116.69 14.5161L116.578 14.6035L116.475 14.6951L116.378 14.791L116.29 14.8911L116.208 14.9955L116.133 15.1042L116.066 15.2171L116.006 15.3343L115.954 15.4558L115.909 15.5815L115.87 15.7115L115.836 15.8457L115.808 15.9821L115.786 16.1227L115.771 16.2655L115.763 16.4125V16.5638L115.76 22.4107V22.562L115.773 22.709L115.788 22.8518L115.81 22.9924L115.838 23.1288L115.872 23.263L115.911 23.393L115.956 23.5187L116.008 23.6402L116.068 23.7574L116.135 23.8703L116.21 23.979L116.292 24.0834L116.38 24.1835L116.477 24.2794L116.58 24.371L116.692 24.4584L116.81 24.5415L116.937 24.6204L117.072 24.6928L117.214 24.761L117.365 24.8228L117.524 24.8803L117.69 24.9336L117.864 24.9805L118.049 25.0209L118.242 25.055L118.445 25.0827L118.655 25.104L118.875 25.119L119.105 25.1275H119.344L128.536 25.1296L128.534 25.1552ZM141.843 13.847V18.3451H132.504V13.847H130.347V25.1552H132.504V20.0157H141.843V25.1552H144V13.847H141.843ZM44.0132 25.1552H54.9025V23.4846H46.1855V13.847H44.0132V25.1552Z" fill="#524E49"/>
<path d="M24.7725 16.4166L28.674 10.6187L32.6679 19.73L24.7725 16.4145V16.4166ZM32.6335 21.0085L21.9184 36.2011L19.2149 24.6692L24.0563 17.4778L32.6314 21.0085H32.6335ZM23.5014 15.8839L12.739 11.3667L10.8226 1.67365L27.9621 9.28913L23.5014 15.8818V15.8839ZM22.7787 16.9515L18.1653 23.7615L8.05676 20.0262L12.4228 12.6877L22.7766 16.9515H22.7787ZM17.9653 25.0741L21.0646 37.4071L21.0796 37.4604L1.36573 31.2726L7.38572 21.1534L17.9632 25.0741H17.9653ZM9.91286 3.22061L11.47 11.7523L6.81362 19.5724L1.89697 17.7505L9.91286 3.22061ZM1.36143 28.7284L1.34208 18.931L6.12752 20.7273L1.36358 28.7284H1.36143ZM0 18.4601L0.0279599 32.2485L21.5334 38.9988L34.3928 20.6974L29.0245 8.61366L10.1989 0.000976562L0 18.4601Z" fill="#524E49"/>
</g>
<defs>
<clipPath id="clip0_5181_620">
<rect width="144" height="39" fill="white" transform="translate(0 0.000976562)"/>
</clipPath>
</defs>
</svg>
