<svg width="92" height="93" viewBox="0 0 92 93" fill="none" xmlns="http://www.w3.org/2000/svg">
<path d="M79.6471 25.9815C72.4241 25.1849 66.7467 20.7312 65.7316 15.0636L63.5489 2.88279C63.2087 0.981464 61.3059 0.0238016 59.385 0H50.4916C49.3309 0 48.3691 0.705647 48.2893 1.61291L46.2367 36.3002L45.0943 49.7075H43.9126L43.1089 36.3002L40.894 1.61291C40.8156 0.705647 39.8523 0 38.6916 0H29.7983C27.8927 0.0378025 26.0166 0.995465 25.6792 2.88279L23.4965 15.0636C22.4814 20.7312 16.8054 25.1849 9.58094 25.9815C2.15206 26.8006 2.15206 35.2221 9.58094 36.044C16.804 36.8406 22.4814 41.2943 23.4965 46.9619L25.6792 59.1427C26.0166 61.0286 27.8955 61.9863 29.7983 62.0213L33.9173 62.0241C35.134 62.0241 36.1225 61.2484 36.1225 60.2936V22.1523L36.0021 14.946L35.8971 8.77297H36.1211L37.0241 22.1523L40.4922 60.4168C40.5748 61.3212 41.5366 62.0241 42.6945 62.0241H46.4874C47.6438 62.0241 48.6071 61.3212 48.6897 60.4168L52.1577 22.1523L53.0608 8.86118H53.2848L53.0608 22.1523V60.2936C53.0608 61.2484 54.0493 62.0241 55.2659 62.0241H59.385C61.3017 62.0003 63.2045 61.0426 63.5447 59.1413L65.7274 46.9605C66.7425 41.2929 72.4185 36.8392 79.6429 36.0426C87.0718 35.2235 87.0718 26.802 79.6429 25.9801H79.6471V25.9815Z" fill="#524E49"/>
<path d="M3.91467 70.0117C4.14568 70.4331 4.41169 70.9554 4.71271 71.5756C5.01373 72.1959 5.32735 72.8679 5.65497 73.589C5.98259 74.3114 6.30603 75.0507 6.62665 75.8039C6.94727 76.5586 7.24828 77.2684 7.5311 77.9334C7.81252 77.2684 8.11493 76.5586 8.43555 75.8039C8.75618 75.0493 9.07961 74.3114 9.40723 73.589C9.73345 72.8665 10.0485 72.1959 10.3495 71.5756C10.6505 70.9554 10.9165 70.4345 11.1475 70.0117H13.8707C13.9981 70.8938 14.1171 71.8822 14.2249 72.9757C14.3341 74.0692 14.4294 75.2075 14.512 76.3905C14.5946 77.5736 14.6716 78.7595 14.7416 79.9482C14.8116 81.1369 14.8732 82.2569 14.9236 83.3042H12.0086C11.9708 82.0133 11.919 80.6062 11.8546 79.0843C11.7902 77.5624 11.695 76.0279 11.5662 74.4808C11.3351 75.0185 11.0789 75.6121 10.7961 76.2645C10.5133 76.917 10.2347 77.5694 9.95885 78.2205C9.68304 78.8729 9.41703 79.4959 9.16081 80.091C8.90459 80.686 8.68617 81.1943 8.50696 81.6157H6.41663C6.23742 81.1943 6.019 80.686 5.76278 80.091C5.50657 79.4959 5.23915 78.8729 4.96334 78.2205C4.68752 77.568 4.4089 76.9156 4.12608 76.2645C3.84327 75.6121 3.58705 75.0185 3.35603 74.4808C3.22863 76.0279 3.13201 77.5624 3.06901 79.0843C3.0046 80.6062 2.9542 82.0133 2.915 83.3042H0C0.0504033 82.2555 0.112014 81.1369 0.182019 79.9482C0.252023 78.7595 0.32903 77.5736 0.411636 76.3905C0.494241 75.2075 0.590837 74.0692 0.698645 72.9757C0.807852 71.8822 0.925464 70.8952 1.05287 70.0117H3.91046H3.91467Z" fill="#524E49"/>
<path d="M26.5094 83.3042C26.361 82.8422 26.2028 82.3675 26.032 81.8817C25.8611 81.3945 25.6917 80.91 25.5237 80.427H20.3322C20.1642 80.9114 19.9961 81.3973 19.8281 81.8845C19.6587 82.3717 19.5019 82.845 19.3563 83.3042H16.2495C16.7493 81.8719 17.224 80.5488 17.6734 79.3335C18.1228 78.1183 18.5611 76.9744 18.9909 75.9005C19.4207 74.8266 19.8436 73.8074 20.2608 72.8413C20.678 71.8752 21.1106 70.933 21.56 70.0117H24.3966C24.8335 70.933 25.2633 71.8752 25.6875 72.8413C26.1118 73.8074 26.5388 74.8266 26.9686 75.9005C27.3984 76.9744 27.8395 78.1197 28.2889 79.3335C28.7383 80.5488 29.2143 81.8719 29.7142 83.3042H26.5094ZM22.9139 73.0233C22.8467 73.2165 22.7487 73.4797 22.6213 73.8116C22.4925 74.1434 22.3469 74.5284 22.1817 74.9639C22.0179 75.3993 21.8331 75.8795 21.6315 76.4031C21.4284 76.9268 21.2226 77.4756 21.0126 78.0497H24.8139C24.6108 77.4728 24.4134 76.9226 24.223 76.3975C24.0326 75.8725 23.8506 75.3923 23.6798 74.9568C23.5076 74.5214 23.3578 74.1378 23.2276 73.806C23.0988 73.4742 22.9937 73.2137 22.9139 73.0247V73.0233Z" fill="#524E49"/>
<path d="M35.3145 69.8573C37.3096 69.8573 38.8371 70.2115 39.8984 70.9214C40.9597 71.6312 41.4903 72.7345 41.4903 74.2298C41.4903 75.1636 41.2761 75.9211 40.8476 76.5021C40.4192 77.0846 39.8018 77.541 38.9967 77.8728C39.2655 78.206 39.547 78.5855 39.841 79.0139C40.135 79.4423 40.4262 79.8904 40.7132 80.3566C41.0003 80.8228 41.2789 81.3086 41.5477 81.8141C41.8165 82.3195 42.0657 82.8151 42.2954 83.301H38.9505C38.7069 82.867 38.4591 82.4259 38.2085 81.9779C37.9579 81.5299 37.7016 81.0958 37.4384 80.673C37.1752 80.2516 36.9148 79.8512 36.6586 79.4745C36.4024 79.0979 36.1447 78.7549 35.8885 78.4483H34.4114V83.301H31.4194V70.2003C32.0719 70.0729 32.7453 69.9833 33.4426 69.9315C34.1398 69.8811 34.7629 69.8545 35.3131 69.8545L35.3145 69.8573ZM35.4867 72.4083C35.2697 72.4083 35.0737 72.4153 34.9015 72.4279C34.7292 72.4405 34.5654 72.4531 34.4128 72.4657V76.0723H35.2571C36.3828 76.0723 37.1878 75.9323 37.6736 75.6509C38.1595 75.3695 38.4031 74.8906 38.4031 74.2116C38.4031 73.5325 38.1567 73.0957 37.6652 72.8213C37.1724 72.5469 36.4472 72.4083 35.4881 72.4083H35.4867Z" fill="#524E49"/>
<path d="M47.7445 70.0117C47.9756 70.4331 48.2416 70.9554 48.5426 71.5756C48.8436 72.1959 49.1586 72.8679 49.4849 73.589C49.8111 74.3114 50.1359 75.0507 50.4565 75.8039C50.7771 76.5586 51.0782 77.2684 51.361 77.9334C51.6424 77.2684 51.9448 76.5586 52.2655 75.8039C52.5861 75.0493 52.9095 74.3114 53.2371 73.589C53.5647 72.8665 53.8784 72.1959 54.1794 71.5756C54.4804 70.9554 54.7464 70.4345 54.9774 70.0117H57.7006C57.828 70.8938 57.947 71.8822 58.0548 72.9757C58.1626 74.0692 58.2592 75.2075 58.3419 76.3905C58.4245 77.5736 58.5015 78.7595 58.5715 79.9482C58.6415 81.1369 58.7031 82.2569 58.7535 83.3042H55.8385C55.8007 82.0133 55.7489 80.6062 55.6845 79.0843C55.6201 77.5624 55.5249 76.0279 55.3975 74.4808C55.1664 75.0185 54.9102 75.6121 54.6274 76.2645C54.3446 76.917 54.066 77.5694 53.7902 78.2205C53.5143 78.8729 53.2483 79.4959 52.9921 80.091C52.7359 80.686 52.5175 81.1943 52.3383 81.6157H50.2479C50.0673 81.1943 49.8503 80.686 49.5941 80.091C49.3379 79.4959 49.0704 78.8729 48.796 78.2205C48.5202 77.568 48.2416 76.9156 47.9588 76.2645C47.6759 75.6121 47.4197 75.0185 47.1887 74.4808C47.0613 76.0279 46.9647 77.5624 46.9003 79.0843C46.8359 80.6062 46.7855 82.0133 46.7463 83.3042H43.8313C43.8817 82.2555 43.9433 81.1369 44.0133 79.9482C44.0833 78.7595 44.1603 77.5736 44.2429 76.3905C44.3255 75.2075 44.4221 74.0692 44.5313 72.9757C44.6392 71.8822 44.7582 70.8952 44.8856 70.0117H47.7431H47.7445Z" fill="#524E49"/>
<path d="M70.3378 83.3042C70.1893 82.8422 70.0311 82.3675 69.8603 81.8817C69.6895 81.3945 69.5201 80.91 69.3521 80.427H64.1606C63.9925 80.9114 63.8245 81.3973 63.6551 81.8845C63.4857 82.3717 63.3289 82.845 63.1847 83.3042H60.0779C60.5777 81.8719 61.0524 80.5488 61.5018 79.3335C61.9512 78.1183 62.3894 76.9744 62.8193 75.9005C63.2491 74.8266 63.6719 73.8074 64.0891 72.8413C64.5064 71.8752 64.939 70.933 65.3884 70.0117H68.225C68.6619 70.933 69.0917 71.8752 69.5159 72.8413C69.9401 73.8074 70.3672 74.8266 70.797 75.9005C71.2268 76.9744 71.6679 78.1197 72.1173 79.3335C72.5667 80.5488 73.0427 81.8719 73.5426 83.3042H70.3378ZM66.7423 73.0233C66.6751 73.2165 66.5785 73.4797 66.4497 73.8116C66.3209 74.1434 66.1753 74.5284 66.0101 74.9639C65.8449 75.3993 65.6615 75.8795 65.4598 76.4031C65.2568 76.9268 65.051 77.4756 64.841 78.0497H68.6422C68.4392 77.4728 68.2418 76.9226 68.0514 76.3975C67.861 75.8725 67.679 75.3923 67.5082 74.9568C67.336 74.5214 67.1862 74.1378 67.056 73.806C66.9271 73.4742 66.8221 73.2137 66.7423 73.0247V73.0233Z" fill="#524E49"/>
<path d="M83.5365 70.0117V72.5627H79.528V83.3042H76.5361V72.5627H72.5276V70.0117H83.5379H83.5365Z" fill="#524E49"/>
<path d="M86.4711 82.6714C86.5944 82.6714 86.6966 82.6616 86.7764 82.6406C86.8562 82.6196 86.9206 82.5916 86.9696 82.5566C87.0186 82.5216 87.0522 82.4796 87.0704 82.4306C87.0886 82.3816 87.0984 82.3284 87.0984 82.2682C87.0984 82.1408 87.0382 82.0358 86.9192 81.9518C86.8002 81.8678 86.5944 81.7767 86.3031 81.6801C86.1757 81.6353 86.0497 81.5835 85.9223 81.5261C85.7949 81.4687 85.6815 81.3959 85.5807 81.3077C85.4799 81.2195 85.3973 81.1131 85.3343 80.9885C85.2713 80.8639 85.2391 80.7113 85.2391 80.5321C85.2391 80.3529 85.2727 80.1918 85.3399 80.0476C85.4071 79.9034 85.5023 79.7816 85.6255 79.6808C85.7487 79.58 85.8985 79.503 86.0735 79.4484C86.2485 79.3938 86.4473 79.3672 86.6672 79.3672C86.929 79.3672 87.1544 79.3952 87.3448 79.4512C87.5352 79.5072 87.692 79.5688 87.8152 79.636L87.5632 80.3249C87.4554 80.2689 87.335 80.2198 87.202 80.1764C87.069 80.133 86.9094 80.112 86.7232 80.112C86.5146 80.112 86.3634 80.1414 86.2723 80.1988C86.1813 80.2562 86.1351 80.3459 86.1351 80.4649C86.1351 80.5363 86.1519 80.5951 86.1855 80.6441C86.2191 80.6931 86.2667 80.7365 86.3284 80.7757C86.39 80.8149 86.4613 80.8499 86.5412 80.8821C86.621 80.9143 86.7106 80.9465 86.8072 80.9801C87.0088 81.0543 87.1838 81.1285 87.3336 81.2013C87.4834 81.2741 87.6066 81.3595 87.706 81.4561C87.8054 81.5527 87.8782 81.6675 87.9272 81.7978C87.9762 81.928 88.0001 82.0876 88.0001 82.2738C88.0001 82.6364 87.8726 82.9164 87.6192 83.1166C87.3658 83.3169 86.9822 83.4163 86.4711 83.4163C86.2989 83.4163 86.1449 83.4065 86.0063 83.3855C85.8677 83.3645 85.7459 83.3393 85.6395 83.3099C85.5331 83.2804 85.4421 83.2482 85.3651 83.2146C85.2881 83.181 85.2237 83.1488 85.1719 83.1194L85.4183 82.425C85.5345 82.488 85.6773 82.5454 85.8467 82.5958C86.0161 82.6462 86.2247 82.6714 86.4711 82.6714Z" fill="#524E49"/>
<path d="M90.9597 83.3371C90.8813 83.2111 90.7889 83.0739 90.6811 82.9283C90.5747 82.7813 90.4599 82.6343 90.3367 82.4845C90.2135 82.336 90.0847 82.1932 89.9503 82.056C89.8159 81.9188 89.6815 81.7984 89.5457 81.6934V83.3371H88.672V79.4561H89.5457V80.9149C89.7697 80.6783 89.9979 80.4319 90.2303 80.1743C90.4627 79.9167 90.6755 79.6773 90.8729 79.4561H91.9104C91.6458 79.7711 91.3798 80.0735 91.1137 80.3633C90.8463 80.6531 90.5649 80.9458 90.2695 81.2398C90.5803 81.4988 90.8799 81.8054 91.1684 82.161C91.4568 82.5167 91.734 82.9087 92 83.3371H90.9611H90.9597Z" fill="#524E49"/>
<path d="M1.18726 89.7554C1.18726 89.5425 1.22227 89.3423 1.29088 89.1533C1.35948 88.9643 1.46027 88.8005 1.59048 88.6605C1.72069 88.5205 1.88031 88.4099 2.06652 88.3273C2.25273 88.2447 2.46555 88.2041 2.70497 88.2041C2.86178 88.2041 3.00598 88.2181 3.13619 88.2461C3.2664 88.2741 3.3938 88.3147 3.51701 88.3665L3.3434 89.0329C3.265 89.0035 3.17959 88.9769 3.08579 88.9545C2.99198 88.9321 2.88838 88.9209 2.77217 88.9209C2.52575 88.9209 2.34233 88.9979 2.22052 89.1505C2.09872 89.3031 2.03852 89.5047 2.03852 89.7554C2.03852 90.02 2.09592 90.2258 2.20933 90.3714C2.32274 90.517 2.52155 90.5898 2.80577 90.5898C2.90658 90.5898 3.01438 90.58 3.13058 90.5618C3.24679 90.5436 3.3532 90.5128 3.44981 90.4722L3.56741 91.1555C3.47081 91.1961 3.349 91.2325 3.20339 91.2619C3.05778 91.2913 2.89678 91.3067 2.72177 91.3067C2.45295 91.3067 2.22192 91.2661 2.02731 91.1863C1.8327 91.1065 1.6731 90.9972 1.54849 90.8586C1.42388 90.72 1.33146 90.5576 1.27406 90.3686C1.21666 90.1796 1.18726 89.9752 1.18726 89.7554ZM1.7417 87.1792L2.05112 86.8096L2.61256 87.2408L3.174 86.8096L3.49462 87.1792L2.61256 87.9464L1.7417 87.1792Z" fill="#524E49"/>
<path d="M7.84049 87.4313C7.84049 87.5839 7.7915 87.7043 7.69209 87.7925C7.59269 87.8807 7.47648 87.9241 7.34207 87.9241C7.20766 87.9241 7.09145 87.8807 6.99205 87.7925C6.89264 87.7043 6.84363 87.5839 6.84363 87.4313C6.84363 87.2787 6.89264 87.1583 6.99205 87.0701C7.09145 86.9819 7.20766 86.9385 7.34207 86.9385C7.47648 86.9385 7.59269 86.9819 7.69209 87.0701C7.7915 87.1583 7.84049 87.2787 7.84049 87.4313ZM7.7621 91.2284H6.92763V88.2826H7.7621V91.2284Z" fill="#524E49"/>
<path d="M12.192 90.6291C12.3446 90.6291 12.4538 90.6137 12.5168 90.5843C12.5798 90.5549 12.612 90.4961 12.612 90.4106C12.612 90.3434 12.5714 90.2846 12.4888 90.2342C12.4062 90.1838 12.2816 90.1264 12.1136 90.0634C11.9834 90.0144 11.8644 89.964 11.758 89.9122C11.6516 89.8604 11.5606 89.7974 11.4863 89.7246C11.4121 89.6518 11.3533 89.565 11.3127 89.4642C11.2721 89.3634 11.2511 89.2416 11.2511 89.1002C11.2511 88.8243 11.3533 88.6059 11.5592 88.4449C11.765 88.2839 12.0464 88.2041 12.4048 88.2041C12.584 88.2041 12.7562 88.2195 12.92 88.2517C13.0839 88.2839 13.2155 88.3175 13.3121 88.3553L13.1665 89.005C13.0699 88.9714 12.9634 88.942 12.85 88.9154C12.7366 88.8887 12.6078 88.8762 12.4664 88.8762C12.2046 88.8762 12.0744 88.949 12.0744 89.0946C12.0744 89.1282 12.08 89.1576 12.0912 89.1842C12.1024 89.2108 12.1248 89.236 12.1584 89.2598C12.192 89.2836 12.2382 89.3102 12.2956 89.3382C12.353 89.3662 12.4272 89.397 12.5168 89.432C12.7002 89.4992 12.8514 89.5664 12.9704 89.6322C13.0895 89.698 13.1847 89.7694 13.2533 89.845C13.3219 89.922 13.3709 90.006 13.3989 90.0998C13.4269 90.1936 13.4409 90.3014 13.4409 90.4233C13.4409 90.7145 13.3317 90.9343 13.1133 91.0827C12.8948 91.2311 12.5854 91.3067 12.1864 91.3067C11.9246 91.3067 11.7076 91.2843 11.5339 91.2395C11.3603 91.1947 11.2399 91.1569 11.1727 91.1275L11.3127 90.4499C11.4541 90.5059 11.5998 90.5493 11.7496 90.5815C11.8994 90.6137 12.0464 90.6291 12.192 90.6291Z" fill="#524E49"/>
<path d="M16.8347 87.5494L17.6692 87.415V88.2831H18.6716V88.9775H17.6692V90.0136C17.6692 90.1886 17.7 90.3286 17.7616 90.4336C17.8232 90.5386 17.9478 90.5904 18.134 90.5904C18.2236 90.5904 18.316 90.582 18.4112 90.5652C18.5064 90.5484 18.5932 90.5246 18.6716 90.4952L18.7893 91.1449C18.6884 91.1855 18.5764 91.2219 18.4532 91.2513C18.33 91.2807 18.1788 91.2961 17.9996 91.2961C17.7714 91.2961 17.5838 91.2653 17.434 91.2037C17.2842 91.1421 17.1652 91.0567 17.0755 90.9461C16.9859 90.8355 16.9229 90.7025 16.8879 90.5456C16.8529 90.3888 16.8347 90.2152 16.8347 90.0248V87.5494Z" fill="#524E49"/>
<path d="M21.8975 89.7778C21.8975 89.516 21.9381 89.2878 22.0179 89.0918C22.0977 88.8958 22.2041 88.7319 22.3343 88.6017C22.4645 88.4715 22.6157 88.3721 22.7851 88.3049C22.9545 88.2377 23.1295 88.2041 23.3087 88.2041C23.7274 88.2041 24.0578 88.3315 24.3 88.5877C24.5422 88.844 24.664 89.2192 24.664 89.7162C24.664 89.7652 24.6626 89.8184 24.6584 89.8758C24.6542 89.9332 24.6514 89.985 24.6472 90.0298H22.7543C22.7725 90.202 22.8537 90.3378 22.9951 90.4387C23.1365 90.5395 23.327 90.5899 23.5664 90.5899C23.719 90.5899 23.8702 90.5759 24.0172 90.5479C24.1642 90.5199 24.2846 90.4849 24.3784 90.4442L24.4904 91.1219C24.4456 91.1443 24.3854 91.1667 24.3112 91.1891C24.237 91.2115 24.153 91.2311 24.062 91.2479C23.971 91.2647 23.873 91.2787 23.768 91.2899C23.663 91.3011 23.5594 91.3067 23.4544 91.3067C23.1897 91.3067 22.9587 91.2675 22.7627 91.1891C22.5667 91.1107 22.4043 91.0029 22.2755 90.8671C22.1467 90.7313 22.0515 90.5689 21.9899 90.3826C21.9283 90.1964 21.8975 89.9948 21.8975 89.7778ZM23.8576 89.4586C23.8534 89.3872 23.8422 89.3186 23.8212 89.2514C23.8002 89.1842 23.7694 89.124 23.726 89.0722C23.6826 89.0204 23.6294 88.977 23.5636 88.9434C23.4978 88.9098 23.4166 88.893 23.32 88.893C23.2234 88.893 23.1464 88.9083 23.0791 88.9406C23.0119 88.9728 22.9559 89.0148 22.9111 89.0666C22.8663 89.1184 22.8313 89.18 22.8075 89.2486C22.7837 89.3172 22.7655 89.3872 22.7543 89.4586H23.8576Z" fill="#524E49"/>
<path d="M28.1083 88.3838C28.2497 88.3432 28.4331 88.304 28.6571 88.269C28.8811 88.234 29.1164 88.2158 29.3628 88.2158C29.6092 88.2158 29.8206 88.248 29.9872 88.3138C30.1538 88.3796 30.2854 88.472 30.382 88.591C30.4786 88.7101 30.5486 88.8529 30.5892 89.0167C30.6298 89.1805 30.6508 89.3639 30.6508 89.5655V91.2288H29.8164V89.6663C29.8164 89.3975 29.7814 89.2071 29.71 89.0951C29.6386 88.9831 29.507 88.9271 29.3124 88.9271C29.2521 88.9271 29.1891 88.9299 29.1219 88.9355C29.0547 88.9411 28.9945 88.9481 28.9427 88.9551V91.2288H28.1083V88.3838Z" fill="#524E49"/>
<path d="M35.1199 87.4313C35.1199 87.5839 35.0709 87.7043 34.9715 87.7925C34.8721 87.8807 34.7559 87.9241 34.6215 87.9241C34.4871 87.9241 34.3709 87.8807 34.2714 87.7925C34.172 87.7043 34.123 87.5839 34.123 87.4313C34.123 87.2787 34.172 87.1583 34.2714 87.0701C34.3709 86.9819 34.4871 86.9385 34.6215 86.9385C34.7559 86.9385 34.8721 86.9819 34.9715 87.0701C35.0709 87.1583 35.1199 87.2787 35.1199 87.4313ZM35.0415 91.2284H34.207V88.2826H35.0415V91.2284Z" fill="#524E49"/>
<path d="M38.4857 89.7778C38.4857 89.516 38.5263 89.2878 38.6061 89.0918C38.6859 88.8958 38.7923 88.7319 38.9225 88.6017C39.0528 88.4715 39.204 88.3721 39.3734 88.3049C39.5428 88.2377 39.7178 88.2041 39.897 88.2041C40.3156 88.2041 40.6461 88.3315 40.8883 88.5877C41.1305 88.844 41.2523 89.2192 41.2523 89.7162C41.2523 89.7652 41.2509 89.8184 41.2467 89.8758C41.2425 89.9332 41.2397 89.985 41.2355 90.0298H39.3426C39.3608 90.202 39.442 90.3378 39.5834 90.4387C39.7248 90.5395 39.9152 90.5899 40.1546 90.5899C40.3072 90.5899 40.4584 90.5759 40.6055 90.5479C40.7525 90.5199 40.8729 90.4849 40.9667 90.4442L41.0787 91.1219C41.0339 91.1443 40.9737 91.1667 40.8995 91.1891C40.8253 91.2115 40.7413 91.2311 40.6503 91.2479C40.5593 91.2647 40.4612 91.2787 40.3562 91.2899C40.2512 91.3011 40.1476 91.3067 40.0426 91.3067C39.778 91.3067 39.547 91.2675 39.351 91.1891C39.155 91.1107 38.9926 91.0029 38.8638 90.8671C38.7349 90.7313 38.6397 90.5689 38.5781 90.3826C38.5165 90.1964 38.4857 89.9948 38.4857 89.7778ZM40.4458 89.4586C40.4416 89.3872 40.4304 89.3186 40.4094 89.2514C40.3884 89.1842 40.3576 89.124 40.3142 89.0722C40.2708 89.0204 40.2176 88.977 40.1518 88.9434C40.086 88.9098 40.0048 88.893 39.9082 88.893C39.8116 88.893 39.7346 88.9083 39.6674 88.9406C39.6002 88.9728 39.5442 89.0148 39.4994 89.0666C39.4546 89.1184 39.4196 89.18 39.3958 89.2486C39.372 89.3172 39.3538 89.3872 39.3426 89.4586H40.4458Z" fill="#524E49"/>
<path d="M49.5324 88.4514C49.6892 88.3954 49.846 88.3506 50.0029 88.317C50.1597 88.2834 50.3151 88.2666 50.4677 88.2666C51.1481 88.2666 51.4883 88.6208 51.4883 89.3307C51.4883 89.5813 51.4477 89.8235 51.3651 90.0587C51.2825 90.2939 51.1621 90.5025 51.0039 90.6832C50.8457 90.8638 50.6511 91.0094 50.4215 91.1172C50.1919 91.225 49.9286 91.2796 49.6346 91.2796C49.489 91.2796 49.3546 91.2628 49.2314 91.2292L48.9836 92.2653H48.6154L49.5338 88.4514H49.5324ZM49.3182 90.8932C49.4344 90.9268 49.552 90.9436 49.6724 90.9436C49.9048 90.9436 50.1107 90.8974 50.2899 90.8064C50.4691 90.7154 50.6217 90.595 50.7449 90.4479C50.8681 90.3009 50.9619 90.1343 51.0249 89.9495C51.0879 89.7647 51.1201 89.5771 51.1201 89.3867C51.1201 89.1067 51.0585 88.9022 50.9353 88.7734C50.8121 88.6446 50.6273 88.5802 50.3795 88.5802C50.2927 88.5802 50.2059 88.5872 50.1191 88.6026C50.0309 88.618 49.9399 88.6376 49.8474 88.6642L49.3196 90.8932H49.3182Z" fill="#524E49"/>
<path d="M57.2357 89.2403C57.2357 89.5918 57.1867 89.8956 57.0873 90.1532C56.9879 90.4108 56.8619 90.625 56.7065 90.7944C56.5511 90.9639 56.3803 91.0899 56.1913 91.1725C56.0022 91.2551 55.8174 91.2957 55.634 91.2957C55.5038 91.2957 55.3792 91.2747 55.2616 91.2341C55.144 91.1935 55.0404 91.1319 54.9508 91.0493C54.8612 90.9667 54.7898 90.8659 54.738 90.744C54.6862 90.6222 54.6595 90.4822 54.6595 90.3212C54.6595 89.9698 54.7086 89.666 54.808 89.4084C54.9074 89.1507 55.0334 88.9379 55.1888 88.7699C55.3442 88.6019 55.515 88.4773 55.704 88.3947C55.893 88.3121 56.0778 88.2715 56.2613 88.2715C56.3915 88.2715 56.5161 88.2925 56.6337 88.3331C56.7513 88.3737 56.8549 88.4353 56.9445 88.5179C57.0341 88.6005 57.1055 88.7013 57.1573 88.8231C57.2091 88.9449 57.2357 89.0835 57.2357 89.2403ZM55.0292 90.2988C55.0292 90.5186 55.0908 90.6852 55.214 90.7972C55.3372 90.9093 55.4842 90.9653 55.6564 90.9653C55.7908 90.9653 55.9294 90.9303 56.0708 90.8617C56.2122 90.793 56.3425 90.688 56.4601 90.548C56.5777 90.408 56.6743 90.2316 56.7513 90.0188C56.8283 89.806 56.8661 89.5554 56.8661 89.2683C56.8661 89.0485 56.8045 88.8819 56.6813 88.7699C56.5581 88.6579 56.4111 88.6019 56.2389 88.6019C56.1044 88.6019 55.9658 88.6369 55.8244 88.7055C55.683 88.7741 55.5528 88.8791 55.4352 89.0191C55.3176 89.1591 55.221 89.3356 55.144 89.5484C55.067 89.7612 55.0292 90.0118 55.0292 90.2988Z" fill="#524E49"/>
<path d="M60.9179 91.2284C60.8255 90.814 60.7415 90.3589 60.6673 89.8619C60.5931 89.3649 60.5525 88.8552 60.5455 88.333H60.9039C60.9081 88.5346 60.9166 88.7474 60.932 88.9714C60.9474 89.1955 60.967 89.4195 60.9936 89.6435C61.0202 89.8675 61.0496 90.0845 61.0846 90.2931C61.1196 90.5018 61.1588 90.6894 61.2036 90.8532C61.3156 90.7034 61.4388 90.5256 61.5704 90.3183C61.7034 90.1111 61.8336 89.8927 61.961 89.6631C62.0884 89.4335 62.2046 89.2039 62.3124 88.9742C62.4189 88.7446 62.5043 88.5304 62.5673 88.333H62.9257C62.8515 88.5682 62.7535 88.8146 62.6345 89.0723C62.5141 89.3299 62.3824 89.5861 62.2368 89.8395C62.0912 90.0929 61.9344 90.3393 61.7678 90.5788C61.6012 90.8182 61.4374 91.0338 61.2764 91.2284H60.9179Z" fill="#524E49"/>
<path d="M66.2874 88.4626C66.4288 88.4066 66.5842 88.3604 66.755 88.3226C66.9244 88.2848 67.091 88.2666 67.2562 88.2666C67.3416 88.2666 67.4242 88.2722 67.5027 88.2834C67.5811 88.2946 67.6553 88.3128 67.7267 88.3394L67.6315 88.6698C67.4859 88.625 67.336 88.6026 67.1834 88.6026C67.0868 88.6026 66.9888 88.6096 66.8922 88.625C66.7956 88.6404 66.6976 88.6628 66.601 88.6922L65.9906 91.2292H65.6279L66.2888 88.4626H66.2874Z" fill="#524E49"/>
<path d="M72.4464 91.0892C72.3722 91.1382 72.2574 91.1844 72.102 91.2292C71.9466 91.274 71.7744 91.2964 71.5839 91.2964C71.2437 91.2964 70.9889 91.1998 70.8167 91.0052C70.6445 90.8106 70.5591 90.5446 70.5591 90.2043C70.5591 89.9509 70.5983 89.7073 70.6767 89.4735C70.7551 89.2397 70.8699 89.0339 71.0211 88.8546C71.1723 88.6754 71.3585 88.5326 71.5783 88.4262C71.7982 88.3198 72.0488 88.2666 72.3288 88.2666C72.5234 88.2666 72.7152 88.2988 72.9056 88.3618L72.7544 88.6922C72.669 88.6586 72.5836 88.6348 72.4996 88.6222C72.4156 88.6096 72.3344 88.6026 72.256 88.6026C72.0586 88.6026 71.878 88.6446 71.7156 88.7286C71.5531 88.8126 71.4145 88.9261 71.2983 89.0703C71.1821 89.2145 71.0925 89.3797 71.0295 89.5687C70.9665 89.7577 70.9343 89.9565 70.9343 90.1651C70.9343 90.4115 70.9917 90.6062 71.1051 90.7476C71.2185 90.889 71.4005 90.9604 71.6511 90.9604C71.7295 90.9604 71.8094 90.9534 71.8892 90.938C71.969 90.9226 72.0432 90.9058 72.1104 90.8848C72.1776 90.8638 72.2378 90.8428 72.2896 90.8204C72.3414 90.798 72.3806 90.777 72.4072 90.7588L72.4464 91.0892Z" fill="#524E49"/>
<path d="M76.1328 91.2287H75.7701L76.7894 86.95L77.1688 86.8828L76.7992 88.4117C77.0344 88.3151 77.2556 88.2661 77.4657 88.2661C77.5931 88.2661 77.7107 88.2843 77.8185 88.3221C77.9263 88.3599 78.0215 88.4159 78.1041 88.4901C78.1867 88.5643 78.2511 88.6595 78.2973 88.7729C78.3435 88.8863 78.3673 89.0222 78.3673 89.179C78.3673 89.2756 78.3603 89.3764 78.3449 89.4786C78.3295 89.5808 78.3099 89.6844 78.2833 89.7894L77.9361 91.2287H77.5735L77.8815 89.9406C77.9109 89.8174 77.9389 89.6928 77.9655 89.5654C77.9921 89.438 78.0047 89.3176 78.0047 89.2014C78.0047 89.0852 77.9865 88.9956 77.9515 88.9186C77.9165 88.8415 77.8689 88.7799 77.8115 88.7337C77.7541 88.6875 77.6855 88.6539 77.6071 88.6329C77.5287 88.6119 77.446 88.6021 77.3606 88.6021C77.2528 88.6021 77.1436 88.6133 77.033 88.6357C76.9224 88.6581 76.8188 88.6861 76.7222 88.7197L76.1356 91.2287H76.1328Z" fill="#524E49"/>
<path d="M84.2799 89.2403C84.2799 89.5918 84.2309 89.8956 84.1315 90.1532C84.0321 90.4108 83.9061 90.625 83.7507 90.7944C83.5953 90.9639 83.4244 91.0899 83.2354 91.1725C83.0464 91.2551 82.8616 91.2957 82.6782 91.2957C82.548 91.2957 82.4234 91.2747 82.3058 91.2341C82.1882 91.1935 82.0846 91.1319 81.9949 91.0493C81.9053 90.9667 81.8339 90.8659 81.7821 90.744C81.7303 90.6222 81.7037 90.4822 81.7037 90.3212C81.7037 89.9698 81.7527 89.666 81.8521 89.4084C81.9515 89.1507 82.0776 88.9379 82.233 88.7699C82.3884 88.6019 82.5592 88.4773 82.7482 88.3947C82.9372 88.3121 83.122 88.2715 83.3054 88.2715C83.4356 88.2715 83.5603 88.2925 83.6779 88.3331C83.7955 88.3737 83.8991 88.4353 83.9887 88.5179C84.0783 88.6005 84.1497 88.7013 84.2015 88.8231C84.2533 88.9449 84.2799 89.0835 84.2799 89.2403ZM82.0734 90.2988C82.0734 90.5186 82.135 90.6852 82.2582 90.7972C82.3814 90.9093 82.5284 90.9653 82.7006 90.9653C82.835 90.9653 82.9736 90.9303 83.115 90.8617C83.2564 90.793 83.3866 90.688 83.5043 90.548C83.6219 90.408 83.7185 90.2316 83.7955 90.0188C83.8725 89.806 83.9103 89.5554 83.9103 89.2683C83.9103 89.0485 83.8487 88.8819 83.7255 88.7699C83.6023 88.6579 83.4553 88.6019 83.283 88.6019C83.1486 88.6019 83.01 88.6369 82.8686 88.7055C82.7272 88.7741 82.597 88.8791 82.4794 89.0191C82.3618 89.1591 82.2652 89.3356 82.1882 89.5484C82.1112 89.7612 82.0734 90.0118 82.0734 90.2988Z" fill="#524E49"/>
<path d="M87.9623 91.2284C87.8699 90.814 87.7859 90.3589 87.7117 89.8619C87.6375 89.3649 87.5968 88.8552 87.5898 88.333H87.9483C87.9525 88.5346 87.9609 88.7474 87.9763 88.9714C87.9917 89.1955 88.0113 89.4195 88.0379 89.6435C88.0645 89.8675 88.0939 90.0845 88.1289 90.2931C88.1639 90.5018 88.2031 90.6894 88.2479 90.8532C88.3599 90.7034 88.4831 90.5256 88.6147 90.3183C88.7477 90.1111 88.8779 89.8927 89.0054 89.6631C89.1328 89.4335 89.249 89.2039 89.3568 88.9742C89.4632 88.7446 89.5486 88.5304 89.6116 88.333H89.97C89.8958 88.5682 89.7978 88.8146 89.6788 89.0723C89.5584 89.3299 89.4268 89.5861 89.2812 89.8395C89.1356 90.0929 88.9787 90.3393 88.8121 90.5788C88.6455 90.8182 88.4817 91.0338 88.3207 91.2284H87.9623Z" fill="#524E49"/>
</svg>
