<svg width="124" height="44" viewBox="0 0 124 44" fill="none" xmlns="http://www.w3.org/2000/svg">
<path d="M66.2448 9.40118H70.2502V14.1531C73.0095 11.1943 76.926 9.31152 81.2875 9.31152V13.4358C75.2348 13.4358 70.4283 18.1877 70.2502 24.1051V39.616H66.1558V9.40118H66.2448Z" fill="#524E49"/>
<path d="M85.3818 7.60662C83.6016 7.60662 81.9104 6.08243 81.9104 4.10995C81.9104 2.13747 83.5126 0.613281 85.3818 0.613281C87.34 0.613281 88.8532 2.22713 88.8532 4.10995C88.8532 6.08243 87.251 7.60662 85.3818 7.60662Z" fill="#524E49"/>
<path d="M87.4292 9.2207H83.3347V39.5252H87.4292V9.2207Z" fill="#524E49"/>
<path d="M104.43 35.4912C98.288 35.4912 93.3035 30.4703 93.3035 24.2839C93.3035 18.0975 98.288 13.0766 104.43 13.0766C110.571 13.0766 115.556 18.0975 115.556 24.2839C115.556 26.884 114.666 29.3047 113.153 31.1876L116.09 34.1463C118.315 31.5462 119.561 28.1392 119.561 24.3735C119.561 15.6767 112.441 9.04199 104.341 9.04199C95.7067 9.04199 89.209 15.7664 89.209 24.3735C89.209 32.8911 95.8848 39.6154 104.341 39.6154C108.079 39.6154 111.551 38.2706 114.132 36.1188L111.195 33.1601C109.414 34.5946 107.011 35.4912 104.43 35.4912Z" fill="#524E49"/>
<path d="M119.651 43.0226C117.87 43.0226 116.179 41.4984 116.179 39.526C116.179 37.5535 117.781 36.0293 119.651 36.0293C121.609 36.0293 123.122 37.6431 123.122 39.526C123.122 41.4984 121.52 43.0226 119.651 43.0226Z" fill="#524E49"/>
<path d="M59.6582 26.346C59.7472 25.7184 59.7472 25.0012 59.7472 24.3735C59.7472 15.6767 52.6264 9.04199 44.5265 9.04199C40.9661 9.04199 37.6727 10.2075 35.1804 12.2697L38.1177 15.2284C39.8979 13.8835 42.1232 13.1663 44.6155 13.1663C50.7572 13.1663 55.7418 18.1871 55.7418 24.3735C55.7418 30.56 50.7572 35.5808 44.6155 35.5808C38.4738 35.5808 33.4892 30.56 33.4892 24.3735C33.4892 21.5941 34.4683 19.0837 36.1595 17.1112L33.2222 14.1525C31.709 15.856 30.6409 17.9182 30.0178 20.2493C28.1486 13.7042 22.0959 9.04199 15.3311 9.04199C10.8806 9.04199 6.96414 10.8352 4.29383 13.7939V9.49028H0.110352V39.6154H4.20482V23.8356C4.47185 17.8285 9.27841 12.987 15.3311 12.987C21.4728 12.987 26.4574 18.0078 26.4574 24.2839V39.6154H30.5519V30.2013C32.7771 35.7601 38.1177 39.6154 44.5265 39.6154C49.8671 39.6154 54.4956 37.0154 57.2549 32.8911C58.7681 35.8498 61.1714 38.1809 64.3758 39.6154V34.9532C61.5274 32.9807 59.7472 29.753 59.6582 26.346Z" fill="#524E49"/>
</svg>
