<svg width="64" height="64" viewBox="0 0 64 64" fill="none" xmlns="http://www.w3.org/2000/svg">
<g clip-path="url(#clip0_58_12)">
<g clip-path="url(#clip1_58_12)">
<path d="M30.8462 29.2393H0V33.7608H30.8462V29.2393Z" fill="black"/>
<path d="M17.6493 15.8364H13.1973V47.1641H17.6493V15.8364Z" fill="black"/>
<path d="M24.7745 18.8047L2.9248 40.9955L6.07287 44.1927L27.9226 22.0019L24.7745 18.8047Z" fill="black"/>
<path d="M6.07287 18.8071L2.9248 22.0043L24.7745 44.1952L27.9226 40.998L6.07287 18.8071Z" fill="black"/>
<path d="M63.5229 29.2393H27.1436V33.7608H63.5229V29.2393Z" fill="black"/>
<path d="M50.33 15.8364H45.8779V47.1641H50.33V15.8364Z" fill="black"/>
<path d="M57.4523 18.8057L35.6025 40.9966L38.7506 44.1938L60.6003 22.0029L57.4523 18.8057Z" fill="black"/>
<path d="M38.7526 18.8057L35.6045 22.0029L57.4543 44.1938L60.6023 40.9966L38.7526 18.8057Z" fill="black"/>
</g>
</g>
<defs>
<clipPath id="clip0_58_12">
<rect width="64" height="33" fill="white" transform="translate(0 15)"/>
</clipPath>
<clipPath id="clip1_58_12">
<rect width="64" height="33" fill="white" transform="translate(0 15)"/>
</clipPath>
</defs>
</svg>
